<svg xmlns="http://www.w3.org/2000/svg" viewBox="0 0 56 80" shape-rendering="crispEdges">
  <path fill="#633f46" stroke="#342a2d" stroke-width="1" d="M12 18h4v-6h5V8h15v4h5v7h4v16h-5V26h-3V20H18v17h-5v-9H9V20h3z M11 8h5V4h7v4h-4v4h-8z M34 7h5V3h7v5h-4v4h-8z"/>
  <path fill="#d8a586" d="M25 34h8v7h-8z"/>
  <path fill="#f4ceb4" d="M19 39h5v8h-4v8h-5v-9h4z M32 39h5v7h4v10h-5v-8h-4z"/>
  <path fill="#cb8b98" stroke="#53434a" stroke-width="1" d="M18 39h20v7h5v10H13V46h5z"/>
  <path fill="#cb8b98" d="M15 52h26l5 13H10z"/><path fill="#fae6e5" d="M19 55h18v2H19z M16 61h24v2H16z"/>
  <path fill="#fae6e5" d="M24 40h8l-4 6z"/><path fill="#b56f7f" d="M27 46h3v4h-3z"/>
  <path fill="#633f46" d="M18 64h8v8h-3v4h-7v-3h2z M30 64h8v8h2v4h-8v-4h-2z"/>
  <path fill="#633f46" d="M18 72h8v3h3v3H15v-3h3z M31 72h8v3h4v3H29v-3h2z"/>
  <path fill="#d8a586" d="M14 14h4v-3h21v3h4v16h-4v6H18v-6h-4z"/>
  <path fill="#f4ceb4" d="M17 13h4v-2h16v3h3v14h-3v6H19v-5h-3V16h1z"/>
  <path fill="#633f46" stroke="#342a2d" stroke-width="1" d="M15 16v-5h5V8h14v4h4v7h-5v-3h-5v3H20v3h-5z"/>
  <path fill="#ad7278" d="M18 11h6V8h9v3h-7v2h-8z"/>
  <path fill="#3b292d" d="M17 20h2v-2h8v2h2v7h-2v2h-8v-2h-2z M29 20h2v-2h8v2h2v7h-2v2h-8v-2h-2z"/>
  <path fill="#824658" d="M20 20h5v7h-5z M32 20h5v7h-5z"/>
  <path fill="#fffaf0" d="M18 19h3v3h-3z M30 19h3v3h-3z"/>
  <path fill="#f6d993" d="M24 22h2v2h-2z M36 22h2v2h-2z"/>
  <path fill="#d98287" d="M16 29h5v2h-5z M36 29h5v2h-5z"/>
  <path fill="#ba6e74" d="M25 32h6v2h-6z"/>
  <path fill="#e9a9ae" d="M41 11h3v3h3v4h-3v3h-3v-3h-3v-4h3z"/>

  <g shape-rendering="crispEdges" aria-hidden="true">
 <path fill="#f4ceb4" d="M16 18h26v12H16z"/>
 <path fill="#382b30" d="M18 21h2v-1h4v1h2v4h-2v2h-4v-1h-2z M30 21h2v-1h4v1h2v4h-2v2h-4v-1h-2z"/>
 <path fill="#fff8ef" d="M19 21h5v4h-5z M31 21h5v4h-5z"/>
 <path fill="#98604e" d="M20 21h3v5h-3z M32 21h3v5h-3z"/>
 <path fill="#342a34" d="M21 22h2v4h-2z M33 22h2v4h-2z"/>
 <path fill="#ffffff" d="M19 21h2v2h-2z M31 21h2v2h-2z M23 23h1v1h-1z M35 23h1v1h-1z"/>
 <path fill="#f7d782" d="M22 24h1v1h-1z M34 24h1v1h-1z"/>
 <path fill="#e89d99" d="M16 29h3v1h-3z M39 29h3v1h-3z"/>
 <path fill="#8a4b54" d="M25 32h2v1h-2z M27 33h3v1h-3z M30 32h2v1h-2z"/>
</g>
  <g shape-rendering="crispEdges" aria-hidden="true"><path fill="#633f46" d="M13 15h4v5h-2v11h-4v-4h-2v-7h4z M40 15h4v6h3v7h-3v5h-4v-9h2v-5h-2z"/><path fill="#ad7278" d="M18 8h5V5h5v2h-5v3h-5z M34 7h4V5h4v3h-4v2h-4z"/></g>
</svg>